####
#
# OBJ File Generated by Meshlab
#
####
# Object LG.obj
#
# Vertices: 244
# Faces: 180
#
####
vn 0.000000 -12.400019 -5.580011
v 1.968504 0.708661 -11.023623
vn 0.000000 -12.400019 -5.580011
v -1.968504 1.417323 -12.598425
vn 0.000000 -6.200009 -2.790006
v 1.968504 1.417323 -12.598425
vn 0.000000 -6.200009 -2.790006
v -1.968504 0.708661 -11.023623
vn 15.624032 0.000000 0.000000
v 1.968504 0.236220 -8.923884
vn 7.192015 0.000000 0.000000
v 1.968504 0.000000 6.299212
vn 2.976006 0.000000 0.000000
v 1.968504 0.000000 -6.299212
vn 23.064045 0.000000 0.000000
v 1.968504 0.236220 8.923884
vn 34.472069 0.000000 0.000000
v 1.968504 0.708661 -11.023623
vn 43.896088 0.000000 0.000000
v 1.968504 0.708661 11.023622
vn 57.288116 0.000000 0.000000
v 1.968504 1.417323 -12.598425
vn 67.456139 0.000000 0.000000
v 1.968504 1.417323 12.598426
vn 81.840164 0.000000 0.000000
v 1.968504 2.362205 -13.648293
vn 91.512177 0.000000 0.000000
v 1.968504 2.362205 13.648293
vn 111.290222 0.000000 0.000000
v 1.968504 3.543307 -14.173228
vn 100.440216 0.000000 0.000000
v 1.968504 3.543307 14.173228
vn 61.027508 0.000000 0.000000
v 1.968504 4.724410 -9.055119
vn 16.042530 0.000000 0.000000
v 1.968504 5.905512 -14.173228
vn 22.636011 0.000000 0.000000
v 1.968504 4.724410 3.937009
vn 1.627502 0.000000 0.000000
v 1.968504 4.882647 -9.645669
vn 3.840131 0.000000 0.000000
v 1.968504 5.314960 -10.077983
vn 2.325005 0.000000 0.000000
v 1.968504 5.905512 -10.236220
vn 2.305034 0.000000 0.000000
v 1.968504 4.724410 -3.937008
vn 7.718118 0.000000 0.000000
v 1.968504 4.882647 3.346457
vn 3.952507 0.000000 0.000000
v 1.968504 4.882647 -3.346457
vn 12.109994 0.000000 0.000000
v 1.968504 5.314960 -2.914144
vn 5.961550 0.000000 0.000000
v 1.968504 5.314960 2.914144
vn 6.696911 0.000000 0.000000
v 1.968504 5.905512 2.755906
vn 3.255008 0.000000 0.000000
v 1.968504 5.905512 -2.755905
vn 18.247412 0.000000 0.000000
v 1.968504 4.724410 9.055118
vn 16.042532 0.000000 0.000000
v 1.968504 5.905512 14.173228
vn 1.627501 0.000000 0.000000
v 1.968504 4.882647 9.645669
vn 3.840132 0.000000 0.000000
v 1.968504 5.314960 10.077983
vn 2.325006 0.000000 0.000000
v 1.968504 5.905512 10.236220
vn 0.000000 -16.533371 -3.720008
v 1.968504 0.236220 -8.923884
vn 0.000000 -16.533371 -3.720008
v -1.968504 0.708661 -11.023623
vn 0.000000 -8.266685 -1.860004
v 1.968504 0.708661 -11.023623
vn 0.000000 -8.266685 -1.860004
v -1.968504 0.236220 -8.923884
vn -15.624032 0.000000 0.000000
v -1.968504 0.236220 8.923884
vn -7.192015 0.000000 0.000000
v -1.968504 -0.000000 -6.299212
vn -2.976006 0.000000 0.000000
v -1.968504 -0.000000 6.299212
vn -23.064047 0.000000 0.000000
v -1.968504 0.236220 -8.923884
vn -34.472069 0.000000 0.000000
v -1.968504 0.708661 11.023622
vn -43.896088 0.000000 0.000000
v -1.968504 0.708661 -11.023623
vn -57.288116 0.000000 0.000000
v -1.968504 1.417323 12.598426
vn -67.456139 0.000000 0.000000
v -1.968504 1.417323 -12.598425
vn -115.320229 0.000000 0.000000
v -1.968504 2.362205 13.648293
vn -58.032116 0.000000 0.000000
v -1.968504 2.362205 -13.648293
vn -132.680267 0.000000 0.000000
v -1.968504 3.543307 -14.173228
vn -79.050163 0.000000 0.000000
v -1.968504 3.543307 14.173228
vn -51.727482 0.000000 0.000000
v -1.968504 4.724410 9.055118
vn -16.042532 0.000000 0.000000
v -1.968504 5.905512 14.173228
vn -1.627501 0.000000 0.000000
v -1.968504 4.882647 9.645669
vn -3.840131 0.000000 0.000000
v -1.968504 5.314960 10.077983
vn -2.325005 0.000000 0.000000
v -1.968504 5.905512 10.236220
vn -5.198471 0.000000 0.000000
v -1.968504 4.882647 3.346457
vn -2.305034 0.000000 0.000000
v -1.968504 4.724410 -3.937008
vn -22.636011 0.000000 0.000000
v -1.968504 4.724410 3.937009
vn -6.472154 0.000000 0.000000
v -1.968504 4.882647 -3.346457
vn -8.854986 0.000000 0.000000
v -1.968504 5.314960 2.914144
vn -9.216558 0.000000 0.000000
v -1.968504 5.314960 -2.914144
vn -6.696911 0.000000 0.000000
v -1.968504 5.905512 2.755906
vn -3.255008 0.000000 0.000000
v -1.968504 5.905512 -2.755905
vn -27.547436 0.000000 0.000000
v -1.968504 4.724410 -9.055119
vn -16.042530 0.000000 0.000000
v -1.968504 5.905512 -14.173228
vn -1.627502 0.000000 0.000000
v -1.968504 4.882647 -9.645669
vn -3.840132 0.000000 0.000000
v -1.968504 5.314960 -10.077983
vn -2.325006 0.000000 0.000000
v -1.968504 5.905512 -10.236220
vn 0.000000 -8.266682 -7.440015
v 1.968504 1.417323 -12.598425
vn 0.000000 -8.266682 -7.440015
v -1.968504 2.362205 -13.648293
vn 0.000000 -4.133341 -3.720008
v 1.968504 2.362205 -13.648293
vn 0.000000 -4.133341 -3.720008
v -1.968504 1.417323 -12.598425
vn 0.000000 0.124597 -0.465001
v 1.968504 5.905512 -2.755905
vn 0.000000 0.294799 -0.635203
v 1.574803 5.314960 -2.914144
vn 0.000000 0.062299 -0.232501
v 1.574803 5.905512 -2.755905
vn 0.000000 0.402703 -0.572905
v 1.968504 5.314960 -2.914144
vn 0.000000 13.950027 0.000000
v -1.968504 5.905512 -10.236220
vn 0.000000 39.060078 0.000000
v 1.574803 5.905512 -10.236220
vn 0.000000 31.000061 0.000000
v -1.968504 5.905512 -14.173228
vn 0.000000 47.120094 0.000000
v -1.574803 5.905512 -10.236220
vn 0.000000 47.120094 0.000000
v 1.574803 5.905512 -2.755905
vn 0.000000 66.960136 0.000000
v -1.574803 5.905512 -2.755905
vn 0.000000 19.530039 0.000000
v 1.968504 5.905512 -2.755905
vn 0.000000 21.700043 0.000000
v 1.968504 5.905512 2.755906
vn 0.000000 17.050035 0.000000
v 1.968504 5.905512 -10.236220
vn 0.000000 15.500031 0.000000
v 1.968504 5.905512 -14.173228
vn 0.000000 21.700043 0.000000
v -1.968504 5.905512 2.755906
vn 0.000000 2.170005 0.000000
v -1.968504 5.905512 -2.755905
vn 0.000000 45.260086 0.000000
v 1.574803 5.905512 2.755906
vn 0.000000 47.120090 0.000000
v -1.574803 5.905512 2.755906
vn 0.000000 61.070118 0.000000
v 1.574803 5.905512 10.236220
vn 0.000000 37.510071 0.000000
v -1.574803 5.905512 10.236220
vn 0.000000 31.000063 0.000000
v 1.968504 5.905512 14.173228
vn 0.000000 1.550003 0.000000
v 1.968504 5.905512 10.236220
vn 0.000000 17.050035 0.000000
v -1.968504 5.905512 10.236220
vn 0.000000 15.500031 0.000000
v -1.968504 5.905512 14.173228
vn 0.000000 0.294799 0.635203
v 1.574803 5.314960 2.914144
vn 0.000000 0.124596 0.465001
v 1.968504 5.905512 2.755906
vn 0.000000 0.062298 0.232501
v 1.574803 5.905512 2.755906
vn 0.000000 0.402703 0.572905
v 1.968504 5.314960 2.914144
vn 0.000000 0.805406 0.465001
v 1.574803 4.882647 3.346457
vn 0.000000 0.402703 0.232500
v 1.968504 4.882647 3.346457
vn 0.000000 0.465001 0.124596
v 1.968504 4.724410 3.937009
vn 0.000000 0.232501 0.062298
v 1.574803 4.724410 3.937009
vn 0.000000 4.030007 0.000000
v 1.574803 4.724410 3.937009
vn 0.000000 4.030007 0.000000
v 1.968504 4.724410 9.055118
vn 0.000000 2.015004 0.000000
v 1.968504 4.724410 3.937009
vn 0.000000 2.015004 0.000000
v 1.574803 4.724410 9.055118
vn 0.000000 0.465001 -0.124596
v 1.574803 4.724410 9.055118
vn 0.000000 0.805406 -0.465001
v 1.968504 4.882647 9.645669
vn 0.000000 0.232501 -0.062298
v 1.968504 4.724410 9.055118
vn 0.000000 0.402703 -0.232500
v 1.574803 4.882647 9.645669
vn 0.000000 0.402703 -0.572905
v 1.574803 5.314960 10.077983
vn 0.000000 0.294799 -0.635203
v 1.968504 5.314960 10.077983
vn 0.000000 0.124596 -0.465001
v 1.574803 5.905512 10.236220
vn 0.000000 0.062298 -0.232501
v 1.968504 5.905512 10.236220
vn 0.000000 0.000000 18.600039
v 1.968504 3.543307 14.173228
vn 0.000000 0.000000 18.600039
v -1.968504 5.905512 14.173228
vn 0.000000 0.000000 9.300019
v -1.968504 3.543307 14.173228
vn 0.000000 0.000000 9.300019
v 1.968504 5.905512 14.173228
vn 0.000000 -4.133345 9.300018
v -1.968504 2.362205 13.648293
vn 0.000000 -4.133345 9.300018
v 1.968504 3.543307 14.173228
vn 0.000000 -2.066672 4.650009
v -1.968504 3.543307 14.173228
vn 0.000000 -2.066672 4.650009
v 1.968504 2.362205 13.648293
vn 0.000000 -8.266674 7.440015
v 1.968504 2.362205 13.648293
vn 0.000000 -8.266674 7.440015
v -1.968504 1.417323 12.598426
vn 0.000000 -4.133337 3.720008
v 1.968504 1.417323 12.598426
vn 0.000000 -4.133337 3.720008
v -1.968504 2.362205 13.648293
vn 0.000000 -12.400034 5.580011
v 1.968504 1.417323 12.598426
vn 0.000000 -12.400034 5.580011
v -1.968504 0.708661 11.023622
vn 0.000000 -6.200017 2.790006
v 1.968504 0.708661 11.023622
vn 0.000000 -6.200017 2.790006
v -1.968504 1.417323 12.598426
vn 0.000000 -16.533363 3.720008
v 1.968504 0.708661 11.023622
vn 0.000000 -16.533363 3.720008
v -1.968504 0.236220 8.923884
vn 0.000000 -8.266682 1.860004
v 1.968504 0.236220 8.923884
vn 0.000000 -8.266682 1.860004
v -1.968504 0.708661 11.023622
vn 0.000000 -20.666708 1.860004
v 1.968504 0.236220 8.923884
vn 0.000000 -20.666708 1.860004
v -1.968504 -0.000000 6.299212
vn 0.000000 -10.333354 0.930002
v 1.968504 0.000000 6.299212
vn 0.000000 -10.333354 0.930002
v -1.968504 0.236220 8.923884
vn 0.000000 -99.200195 -0.000000
v 1.968504 0.000000 6.299212
vn 0.000000 -99.200195 -0.000000
v -1.968504 -0.000000 -6.299212
vn 0.000000 -49.600098 -0.000000
v 1.968504 0.000000 -6.299212
vn 0.000000 -49.600098 -0.000000
v -1.968504 -0.000000 6.299212
vn 0.000000 -20.666708 -1.860004
v 1.968504 0.000000 -6.299212
vn 0.000000 -20.666708 -1.860004
v -1.968504 0.236220 -8.923884
vn 0.000000 -10.333354 -0.930002
v 1.968504 0.236220 -8.923884
vn 0.000000 -10.333354 -0.930002
v -1.968504 -0.000000 -6.299212
vn 0.000000 -4.133345 -9.300018
v 1.968504 3.543307 -14.173228
vn 0.000000 -4.133345 -9.300018
v -1.968504 2.362205 -13.648293
vn 0.000000 -2.066672 -4.650009
v -1.968504 3.543307 -14.173228
vn 0.000000 -2.066672 -4.650009
v 1.968504 2.362205 -13.648293
vn 0.000000 0.000000 -18.600039
v 1.968504 5.905512 -14.173228
vn 0.000000 0.000000 -18.600039
v -1.968504 3.543307 -14.173228
vn 0.000000 0.000000 -9.300019
v -1.968504 5.905512 -14.173228
vn 0.000000 0.000000 -9.300019
v 1.968504 3.543307 -14.173228
vn 0.000000 0.294799 0.635203
v 1.968504 5.314960 -10.077983
vn 0.000000 0.124596 0.465001
v 1.574803 5.905512 -10.236220
vn 0.000000 0.402703 0.572905
v 1.574803 5.314960 -10.077983
vn 0.000000 0.062298 0.232501
v 1.968504 5.905512 -10.236220
vn 0.000000 0.805405 0.465001
v 1.968504 4.882647 -9.645669
vn 0.000000 0.402703 0.232500
v 1.574803 4.882647 -9.645669
vn 0.000000 0.465000 0.124596
v 1.574803 4.724410 -9.055119
vn 0.000000 0.232500 0.062298
v 1.968504 4.724410 -9.055119
vn 0.000000 4.030009 0.000000
v 1.574803 4.724410 -3.937008
vn 0.000000 4.030009 0.000000
v 1.968504 4.724410 -9.055119
vn 0.000000 2.015004 0.000000
v 1.574803 4.724410 -9.055119
vn 0.000000 2.015004 0.000000
v 1.968504 4.724410 -3.937008
vn 0.000000 0.805405 -0.465001
v 1.574803 4.882647 -3.346457
vn 0.000000 0.465001 -0.124596
v 1.968504 4.724410 -3.937008
vn 0.000000 0.232501 -0.062298
v 1.574803 4.724410 -3.937008
vn 0.000000 0.402703 -0.232500
v 1.968504 4.882647 -3.346457
vn 0.000000 0.124597 -0.465001
v -1.574803 5.905512 -2.755905
vn 0.000000 0.294799 -0.635203
v -1.968504 5.314960 -2.914144
vn 0.000000 0.062299 -0.232501
v -1.968504 5.905512 -2.755905
vn 0.000000 0.402703 -0.572905
v -1.574803 5.314960 -2.914144
vn 0.000000 0.805405 -0.465001
v -1.968504 4.882647 -3.346457
vn 0.000000 0.402703 -0.232500
v -1.574803 4.882647 -3.346457
vn 0.000000 0.465001 -0.124596
v -1.574803 4.724410 -3.937008
vn 0.000000 0.232501 -0.062298
v -1.968504 4.724410 -3.937008
vn 0.000000 4.030009 0.000000
v -1.968504 4.724410 -3.937008
vn 0.000000 4.030009 0.000000
v -1.574803 4.724410 -9.055119
vn 0.000000 2.015004 0.000000
v -1.968504 4.724410 -9.055119
vn 0.000000 2.015004 0.000000
v -1.574803 4.724410 -3.937008
vn 0.000000 0.465000 0.124596
v -1.968504 4.724410 -9.055119
vn 0.000000 0.805405 0.465001
v -1.574803 4.882647 -9.645669
vn 0.000000 0.402703 0.232500
v -1.968504 4.882647 -9.645669
vn 0.000000 0.232500 0.062298
v -1.574803 4.724410 -9.055119
vn 0.000000 0.402703 0.572905
v -1.968504 5.314960 -10.077983
vn 0.000000 0.294799 0.635203
v -1.574803 5.314960 -10.077983
vn 0.000000 0.124596 0.465001
v -1.968504 5.905512 -10.236220
vn 0.000000 0.062298 0.232501
v -1.574803 5.905512 -10.236220
vn 0.000000 0.124596 -0.465001
v -1.968504 5.905512 10.236220
vn 0.000000 0.294799 -0.635203
v -1.574803 5.314960 10.077983
vn 0.000000 0.402703 -0.572905
v -1.968504 5.314960 10.077983
vn 0.000000 0.062298 -0.232501
v -1.574803 5.905512 10.236220
vn 0.000000 0.805406 -0.465001
v -1.574803 4.882647 9.645669
vn 0.000000 0.402703 -0.232500
v -1.968504 4.882647 9.645669
vn 0.000000 0.465001 -0.124596
v -1.968504 4.724410 9.055118
vn 0.000000 0.232501 -0.062298
v -1.574803 4.724410 9.055118
vn 0.000000 4.030007 0.000000
v -1.968504 4.724410 3.937009
vn 0.000000 4.030007 0.000000
v -1.574803 4.724410 9.055118
vn 0.000000 2.015004 0.000000
v -1.574803 4.724410 3.937009
vn 0.000000 2.015004 0.000000
v -1.968504 4.724410 9.055118
vn 0.000000 0.805406 0.465001
v -1.968504 4.882647 3.346457
vn 0.000000 0.465001 0.124596
v -1.574803 4.724410 3.937009
vn 0.000000 0.402703 0.232500
v -1.574803 4.882647 3.346457
vn 0.000000 0.232501 0.062298
v -1.968504 4.724410 3.937009
vn 0.000000 0.402703 0.572905
v -1.574803 5.314960 2.914144
vn 0.000000 0.294799 0.635203
v -1.968504 5.314960 2.914144
vn 0.000000 0.124596 0.465001
v -1.574803 5.905512 2.755906
vn 0.000000 0.062298 0.232501
v -1.968504 5.905512 2.755906
vn 4.529882 0.000000 0.000000
v 1.574803 4.882647 -9.645669
vn 1.806648 0.000000 0.000000
v 1.574803 4.724410 -3.937008
vn 0.809877 0.000000 0.000000
v 1.574803 4.724410 -9.055119
vn 6.817029 0.000000 0.000000
v 1.574803 4.882647 -3.346457
vn 10.050873 0.000000 0.000000
v 1.574803 5.314960 -10.077983
vn 11.745150 0.000000 0.000000
v 1.574803 5.314960 -2.914144
vn 8.648125 0.000000 0.000000
v 1.574803 5.905512 -10.236220
vn 4.417510 0.000000 0.000000
v 1.574803 5.905512 -2.755905
vn -4.529882 0.000000 0.000000
v -1.574803 4.882647 -3.346457
vn -1.806648 0.000000 0.000000
v -1.574803 4.724410 -9.055119
vn -0.809877 0.000000 0.000000
v -1.574803 4.724410 -3.937008
vn -6.817029 0.000000 0.000000
v -1.574803 4.882647 -9.645669
vn -10.050873 0.000000 0.000000
v -1.574803 5.314960 -2.914144
vn -11.745150 0.000000 0.000000
v -1.574803 5.314960 -10.077983
vn -8.648126 0.000000 0.000000
v -1.574803 5.905512 -2.755905
vn -4.417511 0.000000 0.000000
v -1.574803 5.905512 -10.236220
vn -4.529881 0.000000 0.000000
v -1.574803 4.882647 9.645669
vn -1.806648 0.000000 0.000000
v -1.574803 4.724410 3.937009
vn -0.809877 0.000000 0.000000
v -1.574803 4.724410 9.055118
vn -6.817029 0.000000 0.000000
v -1.574803 4.882647 3.346457
vn -10.050873 0.000000 0.000000
v -1.574803 5.314960 10.077983
vn -11.745149 0.000000 0.000000
v -1.574803 5.314960 2.914144
vn -8.648125 0.000000 0.000000
v -1.574803 5.905512 10.236220
vn -4.417510 0.000000 0.000000
v -1.574803 5.905512 2.755906
vn 4.529881 0.000000 0.000000
v 1.574803 4.882647 3.346457
vn 1.806648 0.000000 0.000000
v 1.574803 4.724410 9.055118
vn 0.809877 0.000000 0.000000
v 1.574803 4.724410 3.937009
vn 6.817029 0.000000 0.000000
v 1.574803 4.882647 9.645669
vn 10.050873 0.000000 0.000000
v 1.574803 5.314960 2.914144
vn 11.745149 0.000000 0.000000
v 1.574803 5.314960 10.077983
vn 8.648125 0.000000 0.000000
v 1.574803 5.905512 2.755906
vn 4.417510 0.000000 0.000000
v 1.574803 5.905512 10.236220
# 244 vertices, 0 vertices normals

f 1//1 2//2 3//3
f 2//2 1//1 4//4
f 5//5 6//6 7//7
f 6//6 5//5 8//8
f 8//8 5//5 9//9
f 8//8 9//9 10//10
f 10//10 9//9 11//11
f 10//10 11//11 12//12
f 12//12 11//11 13//13
f 12//12 13//13 14//14
f 14//14 13//13 15//15
f 14//14 15//15 16//16
f 16//16 15//15 17//17
f 17//17 15//15 18//18
f 16//16 17//17 19//19
f 17//17 18//18 20//20
f 20//20 18//18 21//21
f 21//21 18//18 22//22
f 19//19 23//23 24//24
f 23//23 19//19 17//17
f 24//24 23//23 25//25
f 24//24 25//25 26//26
f 24//24 26//26 27//27
f 27//27 26//26 28//28
f 28//28 26//26 29//29
f 16//16 30//30 31//31
f 30//30 16//16 19//19
f 31//31 30//30 32//32
f 31//31 32//32 33//33
f 31//31 33//33 34//34
f 35//35 36//36 37//37
f 36//36 35//35 38//38
f 39//39 40//40 41//41
f 40//40 39//39 42//42
f 42//42 39//39 43//43
f 42//42 43//43 44//44
f 44//44 43//43 45//45
f 44//44 45//45 46//46
f 46//46 45//45 47//47
f 46//46 47//47 48//48
f 48//48 47//47 49//49
f 49//49 47//47 50//50
f 49//49 50//50 51//51
f 51//51 50//50 52//52
f 51//51 52//52 53//53
f 53//53 52//52 54//54
f 54//54 52//52 55//55
f 56//56 57//57 58//58
f 57//57 56//56 59//59
f 59//59 56//56 60//60
f 59//59 60//60 61//61
f 61//61 60//60 62//62
f 61//61 62//62 63//63
f 49//49 64//64 65//65
f 64//64 49//49 58//58
f 58//58 49//49 51//51
f 64//64 58//58 57//57
f 65//65 64//64 66//66
f 65//65 66//66 67//67
f 65//65 67//67 68//68
f 69//69 70//70 71//71
f 70//70 69//69 72//72
f 73//73 74//74 75//75
f 74//74 73//73 76//76
f 77//77 78//78 79//79
f 78//78 77//77 80//80
f 78//78 80//80 81//81
f 81//81 80//80 82//82
f 81//81 82//82 83//83
f 83//83 82//82 84//84
f 79//79 85//85 86//86
f 85//85 79//79 78//78
f 87//87 82//82 88//88
f 82//82 87//87 89//89
f 82//82 89//89 84//84
f 89//89 87//87 90//90
f 90//90 91//91 89//89
f 91//91 90//90 92//92
f 91//91 93//93 94//94
f 93//93 91//91 92//92
f 93//93 92//92 95//95
f 93//93 95//95 96//96
f 97//97 98//98 99//99
f 98//98 97//97 100//100
f 101//101 100//100 97//97
f 100//100 101//101 102//102
f 101//101 103//103 102//102
f 103//103 101//101 104//104
f 105//105 106//106 107//107
f 106//106 105//105 108//108
f 109//109 110//110 111//111
f 110//110 109//109 112//112
f 113//113 110//110 112//112
f 110//110 113//113 114//114
f 115//115 114//114 113//113
f 114//114 115//115 116//116
f 117//117 118//118 119//119
f 118//118 117//117 120//120
f 121//121 122//122 123//123
f 122//122 121//121 124//124
f 125//125 126//126 127//127
f 126//126 125//125 128//128
f 129//129 130//130 131//131
f 130//130 129//129 132//132
f 133//133 134//134 135//135
f 134//134 133//133 136//136
f 137//137 138//138 139//139
f 138//138 137//137 140//140
f 141//141 142//142 143//143
f 142//142 141//141 144//144
f 145//145 146//146 147//147
f 146//146 145//145 148//148
f 149//149 150//150 151//151
f 150//150 149//149 152//152
f 153//153 154//154 155//155
f 154//154 153//153 156//156
f 157//157 158//158 159//159
f 158//158 157//157 160//160
f 161//161 159//159 162//162
f 159//159 161//161 157//157
f 163//163 161//161 162//162
f 161//161 163//163 164//164
f 165//165 166//166 167//167
f 166//166 165//165 168//168
f 169//169 170//170 171//171
f 170//170 169//169 172//172
f 76//76 169//169 74//74
f 169//169 76//76 172//172
f 173//173 174//174 175//175
f 174//174 173//173 176//176
f 176//176 177//177 174//174
f 177//177 176//176 178//178
f 177//177 179//179 180//180
f 179//179 177//177 178//178
f 181//181 182//182 183//183
f 182//182 181//181 184//184
f 185//185 186//186 187//187
f 186//186 185//185 188//188
f 186//186 189//189 187//187
f 189//189 186//186 190//190
f 190//190 191//191 189//189
f 191//191 190//190 192//192
f 193//193 194//194 195//195
f 194//194 193//193 196//196
f 195//195 197//197 198//198
f 197//197 195//195 194//194
f 199//199 197//197 200//200
f 197//197 199//199 198//198
f 201//201 202//202 203//203
f 202//202 201//201 204//204
f 205//205 206//206 207//207
f 206//206 205//205 208//208
f 205//205 209//209 210//210
f 209//209 205//205 207//207
f 210//210 211//211 212//212
f 211//211 210//210 209//209
f 213//213 214//214 215//215
f 214//214 213//213 216//216
f 216//216 213//213 217//217
f 216//216 217//217 218//218
f 218//218 217//217 219//219
f 218//218 219//219 220//220
f 221//221 222//222 223//223
f 222//222 221//221 224//224
f 224//224 221//221 225//225
f 224//224 225//225 226//226
f 226//226 225//225 227//227
f 226//226 227//227 228//228
f 229//229 230//230 231//231
f 230//230 229//229 232//232
f 232//232 229//229 233//233
f 232//232 233//233 234//234
f 234//234 233//233 235//235
f 234//234 235//235 236//236
f 237//237 238//238 239//239
f 238//238 237//237 240//240
f 240//240 237//237 241//241
f 240//240 241//241 242//242
f 242//242 241//241 243//243
f 242//242 243//243 244//244
# 180 faces, 0 coords texture

# End of File
